<?xml version="1.0" encoding="utf-8"?>
<!-- Generator: Adobe Illustrator 16.0.0, SVG Export Plug-In . SVG Version: 6.00 Build 0)  -->
<!DOCTYPE svg PUBLIC "-//W3C//DTD SVG 1.1//EN" "http://www.w3.org/Graphics/SVG/1.1/DTD/svg11.dtd">
<svg version="1.1" id="Camada_1" xmlns="http://www.w3.org/2000/svg" xmlns:xlink="http://www.w3.org/1999/xlink" x="0px" y="0px"
	 width="100px" height="100px" viewBox="0 0 100 100" enable-background="new 0 0 100 100" xml:space="preserve">
<g>
	<path fill-rule="evenodd" clip-rule="evenodd" fill="#0292C4" d="M81.437,46.866c-0.049-0.586-0.401-0.968-0.979-1.112
		c-0.244-0.061-0.495-0.125-0.744-0.13c-1.817-0.037-3.635-0.061-5.452-0.086c-0.048-0.002-0.096-0.002-0.145-0.002h-0.242
		c0.014-0.078,0.009-0.107,0.022-0.122c0.098-0.121,0.196-0.243,0.302-0.358c1.589-1.733,2.388-3.81,2.52-6.125
		c0.065-1.142-0.07-2.257-0.379-3.308c-0.483-1.652-1.394-3.146-2.613-4.325c-1.672-1.622-3.927-2.658-6.467-2.719
		c-0.103-0.003-0.203-0.005-0.306-0.005c-2.438,0-4.594,0.713-6.418,2.388c-0.957,0.878-1.726,1.917-2.413,3.009
		c-1.943,3.083-3.549,6.34-4.963,9.696c-0.096,0.226-0.209,0.444-0.354,0.748c-0.128-0.254-0.218-0.419-0.295-0.589
		c-0.82-1.768-1.599-3.557-2.466-5.301c-1.035-2.081-2.163-4.11-3.559-5.983c-0.771-1.035-1.625-1.853-2.553-2.468
		c-0.155-0.104-0.313-0.2-0.472-0.292c-1.432-0.825-3.033-1.208-4.781-1.208c-0.251,0-0.504,0.009-0.761,0.023
		c-0.171,0.011-0.344,0.024-0.518,0.042c-0.174,0.017-0.349,0.037-0.526,0.062c-0.087,0.012-0.177,0.024-0.265,0.038
		c-1.928,0.47-3.518,1.38-4.746,2.565c-1.262,1.218-2.14,2.727-2.606,4.349c-0.898,3.127-0.264,6.672,2.104,9.352
		c0.132,0.149,0.262,0.301,0.466,0.531h-0.485c-1.517,0.007-3.036-0.005-4.553,0.03c-0.572,0.013-1.151,0.097-1.713,0.215
		c-0.52,0.11-0.828,0.495-0.898,1.017c-0.075,0.559-0.129,1.126-0.135,1.69c-0.034,3.576-0.066,7.151-0.066,10.728
		c-0.001,1.215,0.079,2.431,0.146,3.645c0.049,0.88,0.477,1.338,1.343,1.479c0.249,0.04,0.502,0.074,0.753,0.074
		c0.024,0,0.049,0,0.073-0.001h0.033c0.325,0,0.396,0.146,0.397,0.471c0.015,5.286,0.037,10.574,0.073,15.861
		c0.034,4.937,0.08,9.874,0.143,14.812c0.011,0.815,0.104,1.634,0.21,2.444c0.076,0.583,0.25,0.722,0.84,0.818
		c0.283,0.048,0.574,0.066,0.862,0.07c3.216,0.041,6.434,0.109,9.651,0.109h0.102c11.972-0.006,23.942-0.031,35.913-0.059
		c1.022-0.002,2.046-0.039,3.064-0.122c0.637-0.052,0.808-0.229,0.88-0.855c0.109-0.954,0.205-1.917,0.215-2.877
		c0.064-6.395,0.108-12.789,0.152-19.185c0.025-3.697,0.045-7.394,0.058-11.092c0-0.271,0.068-0.38,0.355-0.394
		c0.396-0.017,0.797-0.052,1.179-0.146c0.591-0.147,0.96-0.541,1.031-1.161c0.055-0.454,0.103-0.911,0.104-1.368
		c0.029-3.925,0.059-7.851,0.058-11.776C81.613,48.932,81.522,47.897,81.437,46.866z M56.607,44.762
		c1.415-3.207,2.943-6.357,4.84-9.313c0.632-0.986,1.356-1.907,2.4-2.507c0.061-0.034,0.12-0.067,0.18-0.099
		c0.121-0.064,0.242-0.124,0.365-0.18c0.124-0.056,0.248-0.106,0.373-0.152c0.094-0.035,0.188-0.068,0.281-0.097
		c0.048-0.015,0.096-0.03,0.143-0.044c0.048-0.013,0.096-0.026,0.143-0.039c0.51-0.133,1.031-0.198,1.548-0.198
		c0.469,0,0.937,0.053,1.393,0.157c0.13,0.03,0.259,0.064,0.387,0.103h0.001c0.128,0.038,0.255,0.08,0.38,0.126
		c0.001,0,0.001,0,0.001,0c0.126,0.047,0.25,0.097,0.372,0.151c0.737,0.324,1.418,0.794,1.995,1.392
		c0.047,0.049,0.096,0.101,0.143,0.152c0.14,0.155,0.273,0.318,0.399,0.489c0.127,0.17,0.245,0.35,0.354,0.536
		c0.116,0.194,0.221,0.39,0.312,0.59c0.297,0.639,0.465,1.313,0.433,2.046c-0.013,0.301-0.023,0.604,0.005,0.902
		c0.244,2.531-2.193,5.071-4.275,5.558c-0.806,0.188-1.617,0.318-2.432,0.406c-0.688,0.076-1.38,0.121-2.073,0.146
		c-2.466,0.086-4.934,0.123-7.4,0.18c-0.039,0.002-0.078,0.002-0.119,0.002c-0.068,0-0.145-0.002-0.236-0.002
		C56.555,44.938,56.57,44.845,56.607,44.762z M34.684,33.638c0.073-0.065,0.147-0.128,0.222-0.188
		c0.113-0.091,0.227-0.177,0.342-0.257c0.117-0.08,0.234-0.156,0.354-0.229c0.121-0.072,0.242-0.139,0.364-0.2
		c0.123-0.063,0.246-0.119,0.373-0.173c0.083-0.035,0.167-0.067,0.251-0.099c0.126-0.047,0.254-0.089,0.383-0.127
		c0.086-0.024,0.171-0.047,0.258-0.069c0.173-0.042,0.347-0.076,0.521-0.104c0.087-0.013,0.174-0.024,0.262-0.033
		c0.219-0.023,0.438-0.035,0.657-0.035c0.765,0,1.525,0.143,2.233,0.417c0.109,0.042,0.216,0.087,0.322,0.136
		c0.053,0.024,0.106,0.049,0.159,0.075c0.053,0.025,0.104,0.052,0.156,0.08c0.155,0.081,0.306,0.17,0.454,0.265
		c0.196,0.127,0.386,0.266,0.567,0.415c0.09,0.074,0.178,0.152,0.264,0.233c0,0,0,0,0.001,0c0.043,0.041,0.085,0.082,0.126,0.124
		c0.209,0.209,0.404,0.435,0.581,0.677c1.096,1.504,2.015,3.11,2.852,4.767c0.836,1.653,1.628,3.329,2.436,4.997
		c0.102,0.212,0.175,0.438,0.287,0.722c-0.892,0-1.75,0.005-2.594,0.005c-0.517,0-1.028-0.002-1.539-0.008
		c-1.922-0.019-3.841-0.086-5.752-0.303c-0.446-0.05-0.892-0.107-1.336-0.176c-2.344-0.355-4.036-1.541-4.989-3.721
		c-0.179-0.409-0.276-0.875-0.311-1.322c-0.053-0.67-0.051-1.349-0.014-2.021c0.032-0.604,0.174-1.152,0.399-1.657
		C33.351,34.992,33.961,34.279,34.684,33.638z M44.467,95.337H30.303v-0.443c0.023-9.659,0.046-19.318,0.069-28.978
		c0.001-0.275,0.007-0.553,0.015-0.83c0.021-0.7-0.045-0.638,0.664-0.646c2.054-0.024,4.108-0.042,6.161-0.042h0.234
		c2.168,0.001,4.335,0.036,6.504,0.037c0.338,0,0.448,0.079,0.448,0.437c0.017,10.009,0.044,20.017,0.069,30.025V95.337z
		 M44.467,60.423v0.415H27.665V49.2h6.343c1.812,0,3.625,0,5.437-0.001c1.528-0.002,3.055-0.003,4.582-0.006h0.004
		c0.047,0,0.091,0.002,0.13,0.006c0.012,0,0.024,0.001,0.037,0.004c0.031,0.004,0.059,0.01,0.084,0.018
		c0.021,0.007,0.04,0.015,0.057,0.025c0.038,0.021,0.068,0.051,0.09,0.093c0.009,0.015,0.016,0.034,0.021,0.053
		c0.019,0.061,0.027,0.136,0.027,0.232c-0.003,0.691-0.005,1.381-0.005,2.073C44.463,54.604,44.467,57.514,44.467,60.423z
		 M57.635,95.337h-9.646c-0.006-0.139-0.019-0.256-0.019-0.373c0.027-9.973,0.055-19.946,0.083-29.918
		c0.003-0.595,0.007-0.61,0.589-0.61h0.722c1.857,0,3.714,0.005,5.571,0.005c0.77,0,1.537,0,2.307-0.003h0.004
		c0.381,0,0.311,0.232,0.311,0.451c0.025,8.359,0.049,16.717,0.072,25.076c0.004,1.639,0.006,3.276,0.008,4.915V95.337z
		 M57.234,60.872h-0.008c-2.951-0.014-5.902-0.014-8.852,0.001h-0.008c-0.343,0-0.404-0.121-0.404-0.433
		c0.006-2.59,0.006-5.18,0.006-7.768v-3.071c0-0.118,0.011-0.235,0.017-0.375h9.651v0.379c0,1.021,0,2.043-0.002,3.064
		c0,2.593,0,5.184,0.009,7.774C57.644,60.766,57.568,60.872,57.234,60.872z M75.243,95.332H61.156
		c-0.006-0.115-0.018-0.232-0.018-0.348c0.024-9.875,0.046-19.75,0.081-29.625c0.002-0.529-0.032-0.759,0.066-0.855
		c0.059-0.06,0.165-0.07,0.355-0.07c0.062,0,0.132,0.001,0.212,0.001c0.039,0.001,0.083,0.001,0.128,0.001
		c0.043,0.002,0.091,0.002,0.14,0.002h0.035c1.215-0.003,2.429-0.004,3.643-0.004c2.259,0,4.519,0.004,6.778,0.008
		c0.753,0.001,1.506,0.003,2.259,0.004c0.117,0,0.234,0.016,0.407,0.027V95.332z M77.951,60.835h-16.79
		c-0.008-0.114-0.022-0.231-0.022-0.347c-0.002-2.933,0.001-5.865-0.003-8.797c-0.001-0.704-0.003-1.407-0.004-2.111
		c0-0.113,0.011-0.196,0.042-0.256c0.011-0.019,0.023-0.037,0.037-0.052c0.059-0.059,0.153-0.08,0.302-0.08c0.001,0,0.002,0,0.002,0
		c1.544,0.003,3.088,0.004,4.631,0.006c3.814,0.002,7.629,0.001,11.443,0.001c0.106,0,0.214,0.013,0.362,0.021V60.835z"/>
</g>
<path fill="#0292C4" d="M52.795,4c-13.55,0-24.576,11.023-24.576,24.574c0,0.918,0.05,1.823,0.149,2.715
	c0.485-0.713,1.045-1.377,1.671-1.973c0.517-0.493,1.07-0.938,1.657-1.333c0.314-11.366,9.659-20.516,21.098-20.516
	c11.435,0,20.775,9.141,21.1,20.499c0.795,0.537,1.534,1.172,2.203,1.898c0.411,0.444,0.786,0.917,1.125,1.412
	c0.098-0.888,0.147-1.789,0.147-2.703C77.37,15.023,66.347,4,52.795,4z"/>
<path fill="#0292C4" d="M54.18,30.03c-0.137,0.007-0.277,0.011-0.424,0.011c-0.782,0-1.511-0.151-2.159-0.438
	c-1.752-0.78-2.912-2.558-2.912-5.024c0-2.274,1.009-4.23,2.912-5.076c0.647-0.288,1.399-0.449,2.249-0.449
	c0.115,0,0.225,0.003,0.334,0.007c1.27,0.047,2.161,0.355,2.746,0.688l0.604-2.053c-0.674-0.338-1.918-0.699-3.35-0.749v-1.691
	c0-0.356-0.145-0.68-0.378-0.914c-0.233-0.233-0.558-0.378-0.913-0.378c-0.715,0-1.292,0.578-1.292,1.292v1.952
	c-3.465,0.861-5.6,3.748-5.6,7.492c0,3.871,2.155,6.634,5.6,7.3v2.968c0,0.356,0.144,0.68,0.378,0.913
	c0.233,0.234,0.557,0.378,0.914,0.378c0.713,0,1.291-0.577,1.291-1.291v-2.846c1.526-0.116,2.705-0.508,3.288-0.812l-0.451-1.993
	C56.336,29.616,55.456,29.964,54.18,30.03z"/>
</svg>
