<?xml version="1.0" encoding="utf-8"?>
<!-- Generator: Adobe Illustrator 16.0.0, SVG Export Plug-In . SVG Version: 6.00 Build 0)  -->
<!DOCTYPE svg PUBLIC "-//W3C//DTD SVG 1.1//EN" "http://www.w3.org/Graphics/SVG/1.1/DTD/svg11.dtd">
<svg version="1.1" id="Camada_1" xmlns="http://www.w3.org/2000/svg" xmlns:xlink="http://www.w3.org/1999/xlink" x="0px" y="0px"
	 width="100px" height="100px" viewBox="0 0 100 100" enable-background="new 0 0 100 100" xml:space="preserve">
<path fill-rule="evenodd" clip-rule="evenodd" fill="#0292C4" d="M97.287,60.27c-0.035-0.105-0.07-0.213-0.109-0.316
	c-0.02-0.053-0.039-0.105-0.063-0.16c-0.041-0.102-0.086-0.205-0.133-0.309c-0.045-0.104-0.094-0.203-0.146-0.305
	c-0.051-0.1-0.104-0.199-0.16-0.297c-0.111-0.197-0.232-0.387-0.363-0.572c-0.066-0.094-0.133-0.186-0.203-0.273
	c-0.104-0.137-0.213-0.268-0.326-0.395c-0.076-0.084-0.156-0.168-0.234-0.25c-0.041-0.041-0.082-0.08-0.123-0.121
	c-0.082-0.078-0.166-0.156-0.252-0.232c-1.207-1.061-2.811-1.738-4.693-1.738c-0.051,0-0.104,0-0.156,0.002
	c-0.996,0.021-1.992,0.025-2.992,0.025c-1.646,0-3.293-0.016-4.939-0.018c-0.301,0-0.604-0.027-0.99-0.045
	c0-0.377,0-0.68-0.002-0.982c-0.006-2.082,0.063-4.167-0.041-6.244c-0.131-2.67-0.963-5.006-3.281-6.435
	c-0.203-0.124-0.418-0.242-0.645-0.354c-0.268-0.131-0.539-0.245-0.814-0.339c-0.137-0.049-0.273-0.091-0.41-0.13
	c-0.15-0.044-0.305-0.081-0.455-0.113c-0.111-0.025-0.225-0.047-0.338-0.064c-0.021-0.005-0.043-0.009-0.068-0.012
	c-0.119-0.019-0.24-0.036-0.361-0.048c-0.287-0.032-0.576-0.047-0.867-0.047c-0.211,0-0.428,0.009-0.641,0.026
	c-0.193,0.013-0.385,0.034-0.58,0.059c-0.203,0.029-0.408,0.063-0.615,0.103c-0.205,0.039-0.408,0.086-0.615,0.139
	c-1.285,0.326-1.723,0.897-1.723,2.218c-0.006,2.532-0.002,5.063-0.004,7.595c0,1.836-0.682,3.407-1.916,4.733
	c-1.271,1.363-2.838,2.297-4.596,2.885c-0.059,0.018-0.117,0.027-0.182,0.027c-0.248,0-0.535-0.117-0.785-0.195
	c-0.736-0.223-1.455-0.65-2.197-0.686c-0.936-0.041-1.869-0.055-2.809-0.055c-1.143,0-2.289,0.02-3.434,0.023
	c-2.23,0.012-3.648,1.406-3.652,3.633c-0.011,6.721-0.013,13.445,0,20.168c0.004,2.09,1.289,3.467,3.306,3.6
	c0.09,0.006,0.186,0.01,0.279,0.012c1.051,0.008,2.104,0.018,3.154,0.018c1.031,0,2.061-0.01,3.09-0.033
	c0.557-0.012,1.104-0.238,1.66-0.35c0.043-0.008,0.086-0.018,0.129-0.023c0.113-0.018,0.238-0.031,0.363-0.031
	c0.17,0,0.334,0.027,0.439,0.107c0.135,0.104,0.27,0.201,0.408,0.293c0.092,0.063,0.186,0.121,0.277,0.178
	c0.047,0.027,0.096,0.057,0.143,0.084c0.094,0.053,0.188,0.104,0.283,0.152c0.08,0.041,0.16,0.082,0.24,0.119
	c0.365,0.168,0.738,0.305,1.123,0.41c0.078,0.021,0.158,0.043,0.236,0.063c0.174,0.041,0.352,0.078,0.531,0.107
	c0.088,0.016,0.178,0.029,0.27,0.041c0.014,0.002,0.027,0.004,0.043,0.004c0.088,0.016,0.178,0.025,0.27,0.033
	c0.02,0.002,0.039,0.004,0.059,0.004c0.092,0.012,0.184,0.018,0.275,0.025c0.227,0.014,0.455,0.021,0.686,0.021h0.045
	c2.807-0.012,5.611-0.016,8.42-0.016c2.6,0,5.199,0.004,7.799,0.004c0.811,0,1.621,0,2.432-0.002c0.563,0,1.127-0.016,1.686-0.066
	c3.834-0.346,6.316-2.641,6.932-6.436c0.854-5.273,1.549-10.578,2.561-15.82C97.73,62.533,97.641,61.363,97.287,60.27z
	 M60.135,81.137h-5.938V61.09h5.938V81.137z M93.814,63.305c-0.793,5.281-1.563,10.566-2.33,15.854
	c-0.281,1.943-1.365,3.092-3.309,3.389c-0.58,0.09-1.176,0.115-1.766,0.115c-3.535,0.006-7.07,0.008-10.605,0.008
	c-2.625,0-5.25,0-7.875-0.002c-1.383-0.002-2.404-0.367-3.061-1.09c-0.594-0.656-0.893-1.604-0.895-2.844v-2.949
	c0.002-4.221,0.01-8.441-0.016-12.662c-0.004-0.666,0.18-0.969,0.826-1.209c2.932-1.088,5.484-2.727,7.252-5.391
	c0.482-0.723,0.863-1.48,1.135-2.273c0.309-0.891,0.479-1.822,0.498-2.797c0.041-2.025,0.023-4.05,0.031-6.076
	c0-0.304,0-0.605,0-0.886c0.324-0.077,0.637-0.114,0.939-0.114c0.283,0,0.553,0.033,0.807,0.098
	c0.146,0.037,0.287,0.084,0.422,0.142c0.102,0.042,0.197,0.092,0.291,0.145c0.094,0.055,0.186,0.114,0.271,0.18
	c0.086,0.063,0.166,0.135,0.244,0.211c0.268,0.26,0.48,0.581,0.633,0.959c0.025,0.063,0.049,0.128,0.07,0.194
	c0.273,0.841,0.398,1.759,0.418,2.646c0.035,1.749,0.029,3.497,0.023,5.245c-0.002,0.867-0.004,1.736-0.002,2.604
	c0.004,1.527,0.633,2.166,2.145,2.168c1.107,0.002,2.215,0.002,3.322,0.002c1.354,0,2.707,0,4.061,0c0.914,0,1.828,0,2.742,0
	C92.848,58.975,94.221,60.6,93.814,63.305z"/>
<path fill="#0292C4" d="M78.078,41.604c-0.203-0.124-0.418-0.242-0.645-0.354c-0.268-0.131-0.539-0.245-0.814-0.339
	c-0.137-0.049-0.273-0.091-0.41-0.13c-0.15-0.044-0.305-0.081-0.455-0.113c-0.111-0.025-0.225-0.047-0.338-0.064
	c-0.021-0.005-0.043-0.009-0.068-0.012c-0.119-0.019-0.24-0.036-0.361-0.048c-0.287-0.032-0.576-0.047-0.867-0.047
	c-0.211,0-0.428,0.009-0.641,0.026c-0.002,2.988-0.008,5.975-0.018,8.963c-0.004,1.608-0.102,3.198-0.289,4.764
	c0.309-0.891,0.479-1.822,0.498-2.797c0.041-2.025,0.023-4.05,0.031-6.076c0-0.304,0-0.605,0-0.886
	c0.324-0.077,0.637-0.114,0.939-0.114c0.283,0,0.553,0.033,0.807,0.098c0.146,0.037,0.287,0.084,0.422,0.142
	c0.102,0.042,0.197,0.092,0.291,0.145c0.094,0.055,0.186,0.114,0.271,0.18s0.166,0.137,0.244,0.211
	c0.268,0.26,0.48,0.581,0.633,0.959c0.025,0.063,0.049,0.128,0.07,0.194c0.273,0.841,0.398,1.759,0.418,2.646
	c0.035,1.749,0.029,3.497,0.023,5.245c0.131-1.25,0.203-2.51,0.225-3.78C78.09,47.48,78.088,44.542,78.078,41.604z"/>
<path fill="#0292C4" d="M73.469,19.778c0,5.316,0.01,10.633,0.01,15.949c0.215-0.011,0.43-0.016,0.641-0.016
	c1.365,0,2.686,0.213,3.939,0.637c0-0.6-0.002-1.201-0.002-1.8h0.01c0-5.767,0.004-11.535-0.002-17.302
	c0-1.528-0.604-2.284-2.092-2.595c-2.037-0.427-4.084-0.797-6.115-1.244c-9.641-2.121-18.985-5.16-28.002-9.181
	c-1.151-0.513-2.166-0.517-3.3,0.012c-1.679,0.785-3.399,1.487-5.123,2.173c-9.254,3.678-18.79,6.365-28.581,8.159
	c-1.97,0.363-2.475,1.011-2.475,3.047C2.375,28.195,2.358,38.775,2.39,49.354c0.007,1.824,0.128,3.656,0.345,5.466
	c2.363,19.777,17.422,36.055,36.88,39.893c0.375,0.074,0.789,0.082,1.163,0.01c4.931-0.939,9.589-2.713,13.831-5.152
	c-0.225-0.002-0.457-0.002-0.691-0.004c-2.197-0.02-4.123-0.762-5.565-2.023c-2.393,1.035-4.91,1.855-7.531,2.436
	c-0.392,0.088-0.837,0.082-1.231-0.004C23.058,86.301,10.417,73.029,7.622,56.33c-0.388-2.318-0.604-4.693-0.62-7.044
	c-0.067-9.845-0.02-19.691-0.046-29.538c-0.001-0.706,0.196-0.942,0.896-1.077c10.946-2.102,21.526-5.399,31.762-9.807
	c0.334-0.146,0.836-0.164,1.163-0.022c10.342,4.452,21.03,7.777,32.09,9.897c0.188,0.036,0.367,0.113,0.602,0.186V19.778z"/>
</svg>
