<?xml version="1.0" encoding="utf-8"?>
<!-- Generator: Adobe Illustrator 16.0.0, SVG Export Plug-In . SVG Version: 6.00 Build 0)  -->
<!DOCTYPE svg PUBLIC "-//W3C//DTD SVG 1.1//EN" "http://www.w3.org/Graphics/SVG/1.1/DTD/svg11.dtd">
<svg version="1.1" id="Camada_1" xmlns="http://www.w3.org/2000/svg" xmlns:xlink="http://www.w3.org/1999/xlink" x="0px" y="0px"
	 width="100px" height="100px" viewBox="0 0 100 100" enable-background="new 0 0 100 100" xml:space="preserve">
<g>
	<g>
		<path fill="#0292C4" d="M44.517,33.695h-0.691l1.261,1.288v-0.719C45.086,33.949,44.83,33.695,44.517,33.695z M44.517,33.695
			h-0.691l1.261,1.288v-0.719C45.086,33.949,44.83,33.695,44.517,33.695z M84.408,31.655c-0.859-3.095-2.877-4.977-6.016-5.639
			c-0.452-0.095-0.927-0.112-1.391-0.112C63.4,25.901,49.8,25.899,36.199,25.9l2.939,3.004c12.599-0.001,25.197-0.001,37.795-0.003
			c1.346,0,2.511,0.423,3.446,1.404c0.774,0.814,1.202,1.794,1.227,2.921c0.022,1.059,0.004,2.118,0.004,3.202H46.501l7.389,7.552
			h27.728v0.263c0,7.406,0.001,14.813-0.001,22.221c0,1.632-0.739,3.019-1.975,3.835l2.122,2.168
			c1.305-1.007,2.198-2.435,2.68-4.273c0.103-0.394,0.134-0.805,0.198-1.208V32.977C84.565,32.535,84.527,32.084,84.408,31.655z
			 M58.769,71.065c-11.937,0-23.873,0.005-35.81-0.004c-1.936-0.003-3.341-0.91-4.187-2.655c-0.268-0.553-0.393-1.148-0.393-1.765
			c-0.002-7.47-0.002-14.94-0.002-22.411v-0.25h7.074v13.614c0,0.315,0.255,0.569,0.569,0.569h18.495
			c0.313,0,0.569-0.254,0.569-0.569v-2.849l-2.958-3.023v3.484H28.41V37.703l-2.958-3.023v1.749h-7.074v-0.248
			c0-0.941,0-1.881,0-2.822c0.001-1.558,0.842-2.966,2.103-3.76l-2.126-2.173c-1.302,0.985-2.277,2.4-2.745,4.106
			c-0.187,0.683-0.247,1.381-0.247,2.085c-0.004,10.91-0.007,21.819,0,32.727c0.003,2.856,1.211,5.08,3.623,6.623
			c1.084,0.695,2.288,1.044,3.575,1.103c0.061,0.002,0.121,0.02,0.182,0.03h41.281l-2.97-3.035H58.769z M45.086,34.264
			c0-0.314-0.256-0.569-0.569-0.569h-0.691l1.261,1.288V34.264z M44.517,33.695h-0.691l1.261,1.288v-0.719
			C45.086,33.949,44.83,33.695,44.517,33.695z M44.517,33.695h-0.691l1.261,1.288v-0.719C45.086,33.949,44.83,33.695,44.517,33.695z
			"/>
		<polygon fill="#0292C4" points="77.874,47.414 77.874,50.381 60.153,50.381 57.249,47.414 		"/>
		<polygon fill="#0292C4" points="77.874,53.485 77.874,56.453 66.094,56.453 63.189,53.485 		"/>
		<polygon fill="#0292C4" points="77.874,59.414 77.874,62.382 71.896,62.382 68.991,59.414 		"/>
	</g>
	<path fill-rule="evenodd" clip-rule="evenodd" fill="#0292C4" d="M2.5,54.011c0-2.674,0-5.348,0-8.022
		c0.11-0.32,0.278-0.635,0.321-0.964C5.463,25.299,16.21,12.012,34.813,5.18c3.695-1.357,7.723-1.81,11.598-2.68
		c2.393,0,4.785,0,7.178,0c1.021,0.162,2.042,0.334,3.064,0.484c19.976,2.928,35.904,17.958,39.903,37.673
		c0.358,1.769,0.631,3.554,0.943,5.331c0,2.534,0,5.067,0,7.601c-0.115,0.471-0.271,0.936-0.34,1.414
		c-2.977,20.503-14.247,34.09-33.972,40.493c-3.092,1.003-6.395,1.353-9.6,2.004c-2.252,0-4.503,0-6.756,0
		c-0.399-0.106-0.793-0.271-1.199-0.312C25.828,95.175,9.913,82.051,4.354,63.004C3.5,60.075,3.106,57.012,2.5,54.011z
		 M81.508,77.211c14.783-16.078,13.278-42.812-3.094-57.88C60.871,3.184,36.017,6.146,22.957,18.493
		C42.438,38.029,61.922,57.569,81.508,77.211z M18.543,22.761C4.121,38.869,4.267,65.662,22.744,81.641
		c17.771,15.368,42.262,11.651,54.292-0.215C57.573,61.905,38.109,42.384,18.543,22.761z"/>
</g>
</svg>
