<?xml version="1.0" encoding="utf-8"?>
<!-- Generator: Adobe Illustrator 16.0.0, SVG Export Plug-In . SVG Version: 6.00 Build 0)  -->
<!DOCTYPE svg PUBLIC "-//W3C//DTD SVG 1.1//EN" "http://www.w3.org/Graphics/SVG/1.1/DTD/svg11.dtd">
<svg version="1.1" id="Camada_1" xmlns="http://www.w3.org/2000/svg" xmlns:xlink="http://www.w3.org/1999/xlink" x="0px" y="0px"
	 width="100px" height="100px" viewBox="0 0 100 100" enable-background="new 0 0 100 100" xml:space="preserve">
<path fill="#0292C4" d="M60.289,33.828c-0.234-0.511-0.879-0.748-1.48-0.913c-0.072-0.02-0.148-0.03-0.225-0.03
	c-0.291,0-0.547,0.135-0.775,0.253c-0.047,0.024-0.094,0.049-0.137,0.07l-1.125,0.539c-1.86,0.891-3.783,1.812-5.661,2.749
	c-0.429,0.213-0.628,0.222-0.962,0.029c-0.651-0.373-1.335-0.682-1.999-0.983l-0.281-0.126c-0.322-0.147-0.638-0.221-0.939-0.221
	c-0.647,0-1.175,0.337-1.451,0.925c-0.407,0.875-0.022,1.797,0.958,2.299c0.113,0.06,0.227,0.119,0.341,0.177
	c0.518,0.271,1.054,0.549,1.624,0.756c0.421,0.152,0.552,0.293,0.55,0.89c-0.022,9.345-0.02,18.84-0.019,28.042l3.334-6.756
	c0-7.117-0.004-14.324-0.013-21.448c0-0.405,0.059-0.503,0.391-0.657c1.751-0.81,3.512-1.667,5.215-2.497
	c0.482-0.235,0.965-0.469,1.447-0.703c0.051-0.025,0.105-0.047,0.162-0.072c0.277-0.116,0.623-0.261,0.781-0.604
	C60.285,34.983,60.521,34.338,60.289,33.828z M60.289,33.828c-0.234-0.511-0.879-0.748-1.48-0.913
	c-0.072-0.02-0.148-0.03-0.225-0.03c-0.291,0-0.547,0.135-0.775,0.253c-0.047,0.024-0.094,0.049-0.137,0.07l-1.125,0.539
	c-1.86,0.891-3.783,1.812-5.661,2.749c-0.429,0.213-0.628,0.222-0.962,0.029c-0.651-0.373-1.335-0.682-1.999-0.983l-0.281-0.126
	c-0.322-0.147-0.638-0.221-0.939-0.221c-0.647,0-1.175,0.337-1.451,0.925c-0.407,0.875-0.022,1.797,0.958,2.299
	c0.113,0.06,0.227,0.119,0.341,0.177c0.518,0.271,1.054,0.549,1.624,0.756c0.421,0.152,0.552,0.293,0.55,0.89
	c-0.022,9.345-0.02,18.84-0.019,28.042l3.334-6.756c0-7.117-0.004-14.324-0.013-21.448c0-0.405,0.059-0.503,0.391-0.657
	c1.751-0.81,3.512-1.667,5.215-2.497c0.482-0.235,0.965-0.469,1.447-0.703c0.051-0.025,0.105-0.047,0.162-0.072
	c0.277-0.116,0.623-0.261,0.781-0.604C60.285,34.983,60.521,34.338,60.289,33.828z M49.697,71.814l-0.989,0.145l0,1.596l2.038-0.295
	l1.296-2.625v-3.57L49.697,71.814z M49.697,71.814l-0.989,0.145l0,1.596l2.038-0.295l1.296-2.625v-3.57L49.697,71.814z
	 M60.289,33.828c-0.234-0.511-0.879-0.748-1.48-0.913c-0.072-0.02-0.148-0.03-0.225-0.03c-0.291,0-0.547,0.135-0.775,0.253
	c-0.047,0.024-0.094,0.049-0.137,0.07l-1.125,0.539c-1.86,0.891-3.783,1.812-5.661,2.749c-0.429,0.213-0.628,0.222-0.962,0.029
	c-0.651-0.373-1.335-0.682-1.999-0.983l-0.281-0.126c-0.322-0.147-0.638-0.221-0.939-0.221c-0.647,0-1.175,0.337-1.451,0.925
	c-0.407,0.875-0.022,1.797,0.958,2.299c0.113,0.06,0.227,0.119,0.341,0.177c0.518,0.271,1.054,0.549,1.624,0.756
	c0.421,0.152,0.552,0.293,0.55,0.89c-0.022,9.345-0.02,18.84-0.019,28.042l3.334-6.756c0-7.117-0.004-14.324-0.013-21.448
	c0-0.405,0.059-0.503,0.391-0.657c1.751-0.81,3.512-1.667,5.215-2.497c0.482-0.235,0.965-0.469,1.447-0.703
	c0.051-0.025,0.105-0.047,0.162-0.072c0.277-0.116,0.623-0.261,0.781-0.604C60.285,34.983,60.521,34.338,60.289,33.828z
	 M49.697,71.814l-0.989,0.145l0,1.596l2.038-0.295l1.296-2.625v-3.57L49.697,71.814z M60.289,33.828
	c-0.234-0.511-0.879-0.748-1.48-0.913c-0.072-0.02-0.148-0.03-0.225-0.03c-0.291,0-0.547,0.135-0.775,0.253
	c-0.047,0.024-0.094,0.049-0.137,0.07l-1.125,0.539c-1.86,0.891-3.783,1.812-5.661,2.749c-0.429,0.213-0.628,0.222-0.962,0.029
	c-0.651-0.373-1.335-0.682-1.999-0.983l-0.281-0.126c-0.322-0.147-0.638-0.221-0.939-0.221c-0.647,0-1.175,0.337-1.451,0.925
	c-0.407,0.875-0.022,1.797,0.958,2.299c0.113,0.06,0.227,0.119,0.341,0.177c0.518,0.271,1.054,0.549,1.624,0.756
	c0.421,0.152,0.552,0.293,0.55,0.89c-0.022,9.345-0.02,18.84-0.019,28.042l3.334-6.756c0-7.117-0.004-14.324-0.013-21.448
	c0-0.405,0.059-0.503,0.391-0.657c1.751-0.81,3.512-1.667,5.215-2.497c0.482-0.235,0.965-0.469,1.447-0.703
	c0.051-0.025,0.105-0.047,0.162-0.072c0.277-0.116,0.623-0.261,0.781-0.604C60.285,34.983,60.521,34.338,60.289,33.828z
	 M62.006,72.238c-0.85,0.41-1.697,0.82-2.541,1.229l5.889,0.855c0.848-0.41,1.695-0.82,2.541-1.227L62.006,72.238z M60.289,33.828
	c-0.234-0.511-0.879-0.748-1.48-0.913c-0.072-0.02-0.148-0.03-0.225-0.03c-0.291,0-0.547,0.135-0.775,0.253
	c-0.047,0.024-0.094,0.049-0.137,0.07l-1.125,0.539c-1.86,0.891-3.783,1.812-5.661,2.749c-0.429,0.213-0.628,0.222-0.962,0.029
	c-0.651-0.373-1.335-0.682-1.999-0.983l-0.281-0.126c-0.322-0.147-0.638-0.221-0.939-0.221c-0.647,0-1.175,0.337-1.451,0.925
	c-0.407,0.875-0.022,1.797,0.958,2.299c0.113,0.06,0.227,0.119,0.341,0.177c0.518,0.271,1.054,0.549,1.624,0.756
	c0.421,0.152,0.552,0.293,0.55,0.89c-0.022,9.345-0.02,18.84-0.019,28.042l3.334-6.756c0-7.117-0.004-14.324-0.013-21.448
	c0-0.405,0.059-0.503,0.391-0.657c1.751-0.81,3.512-1.667,5.215-2.497c0.482-0.235,0.965-0.469,1.447-0.703
	c0.051-0.025,0.105-0.047,0.162-0.072c0.277-0.116,0.623-0.261,0.781-0.604C60.285,34.983,60.521,34.338,60.289,33.828z
	 M49.697,71.814l-0.989,0.145l0,1.596l2.038-0.295l1.296-2.625v-3.57L49.697,71.814z M42.591,74.445l0.561-0.082L42.399,74
	c-0.598-0.287-1.193-0.576-1.791-0.863l-1.413,0.205l5.735,5.59c1.16,0.561,2.322,1.125,3.489,1.688l0.073-0.424L42.591,74.445z
	 M60.289,33.828c-0.234-0.511-0.879-0.748-1.48-0.913c-0.072-0.02-0.148-0.03-0.225-0.03c-0.291,0-0.547,0.135-0.775,0.253
	c-0.047,0.024-0.094,0.049-0.137,0.07l-1.125,0.539c-1.86,0.891-3.783,1.812-5.661,2.749c-0.429,0.213-0.628,0.222-0.962,0.029
	c-0.651-0.373-1.335-0.682-1.999-0.983l-0.281-0.126c-0.322-0.147-0.638-0.221-0.939-0.221c-0.647,0-1.175,0.337-1.451,0.925
	c-0.407,0.875-0.022,1.797,0.958,2.299c0.113,0.06,0.227,0.119,0.341,0.177c0.518,0.271,1.054,0.549,1.624,0.756
	c0.421,0.152,0.552,0.293,0.55,0.89c-0.022,9.345-0.02,18.84-0.019,28.042l3.334-6.756c0-7.117-0.004-14.324-0.013-21.448
	c0-0.405,0.059-0.503,0.391-0.657c1.751-0.81,3.512-1.667,5.215-2.497c0.482-0.235,0.965-0.469,1.447-0.703
	c0.051-0.025,0.105-0.047,0.162-0.072c0.277-0.116,0.623-0.261,0.781-0.604C60.285,34.983,60.521,34.338,60.289,33.828z
	 M49.697,71.814l-0.989,0.145l0,1.596l2.038-0.295l1.296-2.625v-3.57L49.697,71.814z M49.697,71.814l-0.989,0.145l0,1.596
	l2.038-0.295l1.296-2.625v-3.57L49.697,71.814z M60.289,33.828c-0.234-0.511-0.879-0.748-1.48-0.913
	c-0.072-0.02-0.148-0.03-0.225-0.03c-0.291,0-0.547,0.135-0.775,0.253c-0.047,0.024-0.094,0.049-0.137,0.07l-1.125,0.539
	c-1.86,0.891-3.783,1.812-5.661,2.749c-0.429,0.213-0.628,0.222-0.962,0.029c-0.651-0.373-1.335-0.682-1.999-0.983l-0.281-0.126
	c-0.322-0.147-0.638-0.221-0.939-0.221c-0.647,0-1.175,0.337-1.451,0.925c-0.407,0.875-0.022,1.797,0.958,2.299
	c0.113,0.06,0.227,0.119,0.341,0.177c0.518,0.271,1.054,0.549,1.624,0.756c0.421,0.152,0.552,0.293,0.55,0.89
	c-0.022,9.345-0.02,18.84-0.019,28.042l3.334-6.756c0-7.117-0.004-14.324-0.013-21.448c0-0.405,0.059-0.503,0.391-0.657
	c1.751-0.81,3.512-1.667,5.215-2.497c0.482-0.235,0.965-0.469,1.447-0.703c0.051-0.025,0.105-0.047,0.162-0.072
	c0.277-0.116,0.623-0.261,0.781-0.604C60.285,34.983,60.521,34.338,60.289,33.828z M60.289,33.828
	c-0.234-0.511-0.879-0.748-1.48-0.913c-0.072-0.02-0.148-0.03-0.225-0.03c-0.291,0-0.547,0.135-0.775,0.253
	c-0.047,0.024-0.094,0.049-0.137,0.07l-1.125,0.539c-1.86,0.891-3.783,1.812-5.661,2.749c-0.429,0.213-0.628,0.222-0.962,0.029
	c-0.651-0.373-1.335-0.682-1.999-0.983l-0.281-0.126c-0.322-0.147-0.638-0.221-0.939-0.221c-0.647,0-1.175,0.337-1.451,0.925
	c-0.407,0.875-0.022,1.797,0.958,2.299c0.113,0.06,0.227,0.119,0.341,0.177c0.518,0.271,1.054,0.549,1.624,0.756
	c0.421,0.152,0.552,0.293,0.55,0.89c-0.022,9.345-0.02,18.84-0.019,28.042l3.334-6.756c0-7.117-0.004-14.324-0.013-21.448
	c0-0.405,0.059-0.503,0.391-0.657c1.751-0.81,3.512-1.667,5.215-2.497c0.482-0.235,0.965-0.469,1.447-0.703
	c0.051-0.025,0.105-0.047,0.162-0.072c0.277-0.116,0.623-0.261,0.781-0.604C60.285,34.983,60.521,34.338,60.289,33.828z
	 M49.697,71.814l-0.989,0.145l0,1.596l2.038-0.295l1.296-2.625v-3.57L49.697,71.814z M49.697,71.814l-0.989,0.145l0,1.596
	l2.038-0.295l1.296-2.625v-3.57L49.697,71.814z M60.289,33.828c-0.234-0.511-0.879-0.748-1.48-0.913
	c-0.072-0.02-0.148-0.03-0.225-0.03c-0.291,0-0.547,0.135-0.775,0.253c-0.047,0.024-0.094,0.049-0.137,0.07l-1.125,0.539
	c-1.86,0.891-3.783,1.812-5.661,2.749c-0.429,0.213-0.628,0.222-0.962,0.029c-0.651-0.373-1.335-0.682-1.999-0.983l-0.281-0.126
	c-0.322-0.147-0.638-0.221-0.939-0.221c-0.647,0-1.175,0.337-1.451,0.925c-0.407,0.875-0.022,1.797,0.958,2.299
	c0.113,0.06,0.227,0.119,0.341,0.177c0.518,0.271,1.054,0.549,1.624,0.756c0.421,0.152,0.552,0.293,0.55,0.89
	c-0.022,9.345-0.02,18.84-0.019,28.042l3.334-6.756c0-7.117-0.004-14.324-0.013-21.448c0-0.405,0.059-0.503,0.391-0.657
	c1.751-0.81,3.512-1.667,5.215-2.497c0.482-0.235,0.965-0.469,1.447-0.703c0.051-0.025,0.105-0.047,0.162-0.072
	c0.277-0.116,0.623-0.261,0.781-0.604C60.285,34.983,60.521,34.338,60.289,33.828z"/>
<path fill="#0292C4" d="M87.135,22.189c0-1.11-0.445-1.816-1.445-2.292c-3.537-1.678-7.121-3.414-10.588-5.091l-2.369-1.146
	C67.521,11.141,62.311,8.619,57.1,6.099l-6.3-3.05h-0.955l-0.142,0.149L44.09,5.907c-9.513,4.592-19.349,9.34-29.032,13.993
	c-0.998,0.48-1.443,1.186-1.441,2.289c0.022,13.373,0.022,26.848,0,40.049c-0.002,1.098,0.444,1.803,1.449,2.287
	c7.414,3.563,15.082,7.26,22.902,11.039l-0.481-0.471l-3.553-3.463l2.736-0.396c-6.468-3.123-12.939-6.246-19.411-9.361
	c-0.299-0.145-0.308-0.184-0.308-0.395c0.014-10.088,0.014-20.341,0.014-30.259v-6.909c0.349,0.164,0.682,0.321,1.014,0.481
	l5.871,2.835c5.573,2.69,11.144,5.381,16.717,8.069c0.342,0.164,0.713,0.328,1.112,0.405c0.114,0.021,0.227,0.032,0.339,0.032
	c0.726,0,1.291-0.446,1.411-1.109c0.118-0.671-0.227-1.371-0.381-1.64c-0.194-0.34-0.559-0.489-0.853-0.608
	c-0.071-0.029-0.143-0.058-0.209-0.09c-5.174-2.5-10.35-5-15.525-7.5l-7.321-3.536l0.201-0.098c0.785-0.38,1.538-0.746,2.292-1.109
	c0.546-0.263,1.091-0.527,1.637-0.792c1.817-0.88,3.695-1.791,5.555-2.656c0.06-0.029,0.176-0.058,0.324-0.058
	c0.145,0,0.255,0.028,0.309,0.054c6.438,3.093,12.979,6.248,19.305,9.297c4.512,2.176,9.023,4.352,13.537,6.524
	c0.299,0.144,0.348,0.219,0.344,0.535c-0.018,3.026-0.016,6.101-0.014,9.074c0,0.95,0.002,1.9,0.002,2.849l-0.002,0.178
	c0,0.146,0,0.29,0.004,0.435c0.031,1.844,1.201,1.987,1.559,1.987c0.336,0,0.711-0.097,1.117-0.289
	c1.172-0.553,2.359-1.126,3.508-1.682l1.113-0.538c0.316-0.153,0.633-0.311,0.947-0.471c0.654-0.329,1.33-0.671,2.008-0.945
	c1.094-0.443,1.574-1.209,1.563-2.487c-0.023-2.292-0.023-4.624-0.021-6.879c0.002-1.749,0.002-3.559-0.008-5.338
	c-0.002-0.372,0.047-0.455,0.35-0.599c2.172-1.024,4.367-2.087,6.492-3.115c0.842-0.409,1.684-0.816,2.525-1.222v6.32
	c0,10.042,0,20.424,0.018,30.639c0,0.393-0.07,0.5-0.455,0.684c-5.781,2.783-11.629,5.604-17.404,8.389l3.998,0.582l1.893,0.275
	c4.682-2.258,9.307-4.484,13.852-6.668c1.004-0.484,1.449-1.189,1.449-2.287C87.113,49.042,87.113,35.569,87.135,22.189z
	 M64.352,29.953c0,0-0.02,0.006-0.064,0.006c-0.127,0-0.305-0.046-0.445-0.112c-7.088-3.403-14.288-6.877-21.25-10.238l-1.816-0.876
	c-2.159-1.041-4.315-2.085-6.473-3.13L33.057,15c0.169-0.079,0.337-0.158,0.503-0.235c1.142-0.531,2.219-1.031,3.266-1.646
	c0.557-0.327,1.049-0.48,1.549-0.48c0.491,0,1.022,0.149,1.673,0.469c7.438,3.655,15.028,7.313,22.37,10.851
	c2.404,1.159,4.809,2.317,7.213,3.479c-0.186,0.09-0.371,0.179-0.555,0.268C67.445,28.494,65.908,29.239,64.352,29.953z
	 M70.854,41.225c-1.137,0.528-2.279,1.083-3.385,1.619c-0.502,0.243-1.004,0.485-1.506,0.727l0.002-3.128
	c0.002-2.372,0.004-4.826-0.012-7.24c-0.002-0.285,0.039-0.33,0.254-0.43c1.121-0.522,2.25-1.068,3.342-1.597
	c0.516-0.25,1.031-0.5,1.549-0.748v1.168c0,0.754-0.002,1.507-0.002,2.261c-0.002,2.274-0.004,4.627,0.012,6.94
	C71.111,41.081,71.072,41.123,70.854,41.225z M80.627,22.13c-2.238,1.084-4.553,2.205-6.842,3.28
	c-0.086,0.041-0.219,0.067-0.346,0.067c-0.105,0-0.182-0.019-0.213-0.035c-9.889-4.748-19.93-9.597-29.641-14.287L42.228,10.5
	l1.205-0.583c2.183-1.058,4.442-2.152,6.672-3.204c0.053-0.025,0.163-0.054,0.294-0.054c0.102,0,0.174,0.018,0.206,0.032
	c9.767,4.693,19.687,9.486,29.282,14.12l1.736,0.838L80.627,22.13z"/>
<path fill="#0292C4" d="M69.59,73.342l-1.695-0.246l-5.889-0.857l-2.916-0.424l-4.697-9.516l-2.351,4.766l-2.345,4.75l-0.989,0.145
	l-8.099,1.178l-1.413,0.205l5.735,5.59l1.864,1.816L45,91.207l9.393-4.938l9.393,4.938l-1.793-10.459L69.59,73.342z M54.393,84.484
	l-7.293,3.834l1.321-7.699l0.073-0.424l-5.902-5.75l0.561-0.082l5.557-0.809l2.038-0.295l1.296-2.625l2.351-4.766l3.648,7.391
	l1.424,0.207l5.889,0.855l0.84,0.123l-5.9,5.75l1.395,8.123L54.393,84.484z"/>
<path fill="#0292C4" d="M38.268,97.176l-7.698-4.047l-7.698,4.047l1.47-8.574l-6.228-6.07l8.607-1.25l3.849-7.799l3.849,7.799
	l8.607,1.25l-6.228,6.07L38.268,97.176z M30.57,91.342l5.6,2.945L35.1,88.051l4.531-4.416l-6.261-0.91l-2.8-5.672l-2.8,5.672
	l-6.261,0.91l4.531,4.416l-1.07,6.236L30.57,91.342z"/>
<path fill="#0292C4" d="M70.498,97.299l1.471-8.572l-6.229-6.07l8.607-1.252l3.85-7.799l3.85,7.799l8.607,1.252l-6.229,6.07
	l1.471,8.572l-7.699-4.047L70.498,97.299z M78.197,91.467l5.6,2.943l-1.07-6.236l4.531-4.414l-6.26-0.91l-2.801-5.674l-2.801,5.674
	l-6.26,0.91l4.531,4.414l-1.07,6.236L78.197,91.467z"/>
</svg>
