<?xml version="1.0" encoding="utf-8"?>
<!-- Generator: Adobe Illustrator 16.0.0, SVG Export Plug-In . SVG Version: 6.00 Build 0)  -->
<!DOCTYPE svg PUBLIC "-//W3C//DTD SVG 1.1//EN" "http://www.w3.org/Graphics/SVG/1.1/DTD/svg11.dtd">
<svg version="1.1" id="Camada_1" xmlns="http://www.w3.org/2000/svg" xmlns:xlink="http://www.w3.org/1999/xlink" x="0px" y="0px"
	 width="100px" height="100px" viewBox="0 0 100 100" enable-background="new 0 0 100 100" xml:space="preserve">
<g>
	<path fill="#0292C4" d="M31.113,65.922c-0.035,0.108-0.067,0.217-0.096,0.325c0.034-0.063,0.068-0.126,0.102-0.188
		c0.031-0.099,0.065-0.197,0.098-0.294c-0.009-0.01-0.018-0.018-0.028-0.026C31.164,65.8,31.139,65.861,31.113,65.922z"/>
	<path fill="#0292C4" d="M78.396,22.147l-4.445-3.207l0.176-7.648c0.012-0.455-0.263-0.869-0.687-1.035
		C62.038,5.775,53.17,5.084,50.078,4.985H50.06c-1.547,0.049-4.536,0.247-8.566,0.992c-4.028,0.746-9.096,2.039-14.795,4.28
		c-0.425,0.166-0.698,0.58-0.688,1.035l0.176,7.648l-4.444,3.207c-0.284,0.204-0.452,0.532-0.452,0.879v26.442
		c0.001,0.145,0.046,3.619,1.836,8.104c0.763,1.907,1.92,4.171,3.673,6.473v-0.334c-0.002-0.807,0.197-1.544,0.57-2.175
		c0.014,0.023,0.028,0.048,0.043,0.071c0.611-0.294,1.222-0.587,1.834-0.882c-0.861-1.38-1.591-2.857-2.191-4.428
		c-1.538-4.03-1.586-7.207-1.586-7.229V23.765l3.197-2.438l1.038-0.792l-0.009-0.012l0.313-1.131
		c-0.003-0.009-0.006-0.018-0.009-0.026v0.038l-0.01-0.523l-0.002-0.054l-0.14-6.383c9.791-3.961,17.529-4.626,20.22-4.733
		C52.76,7.817,60.5,8.482,70.291,12.443l-0.142,6.383l-0.014,0.577l1.052,0.025l-0.002,0.001l-1.053-0.026v-0.039
		c-0.003,0.008-0.006,0.018-0.009,0.026l0.313,1.135l-0.005,0.008l0.01,0.008v0.001h0.002l1.025,0.782l3.199,2.438v25.304
		c0,0.022-0.049,3.199-1.587,7.229c-0.601,1.573-1.333,3.052-2.195,4.433c0.612,0.295,1.226,0.588,1.838,0.881
		c0.016-0.025,0.029-0.05,0.045-0.074c0.372,0.63,0.569,1.367,0.568,2.175v0.334c1.753-2.302,2.911-4.566,3.674-6.474
		c1.789-4.484,1.834-7.958,1.836-8.104V23.026C78.848,22.679,78.679,22.351,78.396,22.147z M23.461,49.46v-0.385
		c0.001,0.106,0.025,1.954,0.685,4.655C23.49,51.203,23.461,49.477,23.461,49.46z M76.676,49.46c0,0.017-0.028,1.727-0.675,4.234
		c0.652-2.682,0.675-4.514,0.675-4.619V49.46z"/>
	<path fill="#0292C4" d="M62.355,72.436c-0.011,0.143-0.022,0.285-0.035,0.428c0.065-0.033,0.131-0.066,0.197-0.1
		c-0.003-0.028-0.007-0.057-0.01-0.086C62.456,72.598,62.404,72.517,62.355,72.436z"/>
	<path fill="#0292C4" d="M50.049,72.064c0.084-0.185,0.171-0.369,0.262-0.551c0.012-0.044,0.022-0.089,0.034-0.132
		c-0.117,0.212-0.226,0.429-0.332,0.646C50.025,72.041,50.038,72.053,50.049,72.064z"/>
	<path fill="#0292C4" d="M35.515,35.043c-1.201-1.087-1.809-2.393-1.858-3.99c0-2.062,0.046-6.341,19.719-14.928
		c0.491-0.214,0.716-0.786,0.501-1.277c-0.215-0.49-0.785-0.714-1.277-0.5c-18.353,8.011-20.883,12.77-20.883,16.72l0.001,0.028
		c0.062,2.131,0.902,3.943,2.497,5.386c4.196,3.797,12.546,3.945,15.538,3.866L49.33,49.64c-0.024,0.535,0.389,0.989,0.924,1.013
		c0.015,0,0.03,0,0.045,0c0.516,0,0.945-0.405,0.967-0.925l0.521-11.438l-1.085,0.076C50.594,38.374,39.959,39.068,35.515,35.043z"
		/>
	<path fill="#0292C4" d="M54.529,32.537l-1.344-2.811l-0.603-0.265c0,0-0.164-0.167,0-0.454c0.323-0.738-0.022-1.336-0.741-1.502
		c-0.886-0.048-0.372,1.502-0.372,1.502l0.14,0.502l-0.767-0.048c0,0-0.487-0.288-0.951-0.86c-0.21-1.382-0.21-1.503-0.559-1.676
		c-0.068,0.903,0.233,2.13,0.233,2.13l1.251,1.551v2.554l0.42,0.023l0.104,3.038c-2.666,0-6.85-0.154-9.483-1.023l-0.048-0.021
		c-1.791-0.765-4.788-2.046-4.001-6.067c0.069-0.351-0.16-0.69-0.51-0.759c-0.351-0.069-0.69,0.16-0.758,0.51
		c-0.989,5.047,2.894,6.707,4.761,7.504l0.123,0.051c2.798,0.932,7.093,1.101,9.85,1.101c1.486,0,2.526-0.049,2.642-0.055
		c0.357-0.018,0.632-0.322,0.615-0.678c-0.019-0.356-0.322-0.633-0.678-0.613c-0.012,0-0.18,0.008-0.463,0.017l-0.041-4.915
		c0,0,0.232,0.454,0.602,1.503C54.578,34.184,54.529,32.537,54.529,32.537z M51.976,36.218c-0.047-1.47,0.206-2.903,0.206-2.903
		s0,0,0.191,0.019c0.178,0.027,0.313,2.021,0.361,2.873C52.51,36.211,52.255,36.215,51.976,36.218z"/>
</g>
<path fill="#0292C4" d="M70.956,66.786c0.001-1.026,0.002-2.054,0.004-3.078c0-0.042-0.001-0.083-0.003-0.123
	c-0.033-0.726-0.38-1.234-1.055-1.556c-0.376-0.178-0.753-0.357-1.131-0.538c-0.552-0.265-1.105-0.53-1.659-0.796
	c-1.044-0.502-2.083-1.006-3.104-1.5l-1.311-0.634c-2.842-1.373-5.683-2.748-8.524-4.123l-3.767-1.822h-0.826l-0.154,0.162
	l-3.108,1.501c-4.36,2.104-8.842,4.268-13.298,6.41c-0.554,0.267-1.106,0.534-1.658,0.799c-0.377,0.182-0.754,0.362-1.131,0.544
	c-0.673,0.323-1.018,0.831-1.051,1.553c-0.001,0.04-0.003,0.081-0.003,0.123c0.001,1.024,0.003,2.051,0.003,3.078
	c0.008,6.402,0.006,12.845-0.004,19.195c-0.001,0.782,0.345,1.33,1.06,1.674c6.073,2.92,12.443,5.994,18.936,9.139
	c0.306,0.148,0.6,0.222,0.896,0.222c0.297,0,0.591-0.073,0.897-0.222c6.474-3.136,12.844-6.211,18.935-9.139
	c0.714-0.344,1.061-0.892,1.06-1.674C70.949,79.647,70.947,73.204,70.956,66.786z M61.154,73.945
	c-0.594,0.277-1.19,0.565-1.767,0.846c-0.066,0.031-0.136,0.065-0.202,0.098v-0.502v-0.527c0-0.617,0.002-1.245,0-1.875
	c0-0.679-0.002-1.363-0.006-2.041c0.588-0.274,1.179-0.562,1.751-0.838c0.073-0.036,0.146-0.07,0.218-0.104c0,0.397,0,0.797,0,1.195
	c0,0.273,0,0.551-0.002,0.828c0,0.802,0.002,1.614,0.006,2.424C61.152,73.614,61.153,73.779,61.154,73.945z M50.068,55.521
	c5.042,2.422,10.155,4.891,15.128,7.293c0.378,0.184,0.758,0.366,1.135,0.548l0.093,0.044c-1.152,0.559-2.337,1.131-3.508,1.682
	c-0.092-0.044-0.186-0.089-0.278-0.133c-5.366-2.577-10.809-5.206-16.076-7.75C47.711,56.647,48.897,56.074,50.068,55.521z
	 M42.758,59.048c0.313-0.185,0.513-0.206,0.636-0.206c0.202,0,0.436,0.068,0.734,0.214c4.134,2.032,8.352,4.064,12.431,6.03
	c1.064,0.513,2.13,1.027,3.195,1.541c-0.677,0.326-1.33,0.64-1.988,0.943c-0.005-0.003-0.01-0.004-0.013-0.006
	c-3.944-1.893-7.95-3.826-11.824-5.695l-1.006-0.486c-1.15-0.556-2.3-1.111-3.449-1.667C41.907,59.51,42.341,59.292,42.758,59.048z
	 M48.694,89.779v3.727l-2.853-1.377c-4.561-2.201-9.275-4.478-13.918-6.713c0.007-5.395,0.007-10.872,0.007-16.184v-3.639l3.3,1.593
	c3.062,1.479,6.125,2.957,9.189,4.434c0.217,0.105,0.456,0.21,0.728,0.262c0.089,0.018,0.182,0.027,0.272,0.027
	c0.301,0,0.575-0.097,0.789-0.263c0.225-0.175,0.382-0.427,0.436-0.724c0.087-0.498-0.128-0.973-0.265-1.211
	c-0.008-0.014-0.017-0.027-0.025-0.041c-0.187-0.293-0.486-0.415-0.667-0.489c-0.031-0.013-0.063-0.025-0.091-0.039
	c-2.193-1.059-4.386-2.119-6.581-3.179c-0.623-0.301-1.246-0.602-1.867-0.901l-3.428-1.656c0.187-0.091,0.371-0.18,0.556-0.27
	c0.221-0.107,0.443-0.215,0.666-0.322c0.079-0.038,0.158-0.077,0.237-0.115c1.004-0.485,2.042-0.989,3.068-1.468h0.022
	c3.576,1.717,7.209,3.469,10.722,5.164c1.943,0.937,3.886,1.872,5.83,2.809c0.036,0.018,0.074,0.035,0.11,0.053
	c-0.018-0.005-0.035-0.01-0.053-0.014c-0.033-0.01-0.065-0.017-0.099-0.021c-0.047-0.008-0.096-0.012-0.145-0.012
	c-0.271,0-0.493,0.116-0.639,0.192c-0.021,0.012-0.041,0.021-0.063,0.032l-0.631,0.302c-0.733,0.352-1.484,0.712-2.233,1.076
	c-0.307,0.15-0.612,0.302-0.917,0.452c-0.049,0.025-0.079,0.036-0.093,0.041c-0.005-0.002-0.013-0.006-0.022-0.012
	c-0.296-0.169-0.599-0.314-0.897-0.451c-0.085-0.04-0.169-0.077-0.252-0.115l-0.154-0.07c-0.116-0.052-0.231-0.092-0.346-0.119
	c-0.123-0.028-0.243-0.043-0.362-0.043c-0.532,0-0.985,0.288-1.211,0.772c-0.09,0.193-0.133,0.39-0.133,0.583
	c0.001,0.514,0.313,0.997,0.867,1.281c0.062,0.031,0.125,0.064,0.187,0.097c0.302,0.157,0.613,0.32,0.958,0.445
	c0.004,0,0.007,0.001,0.011,0.003c0.001,0.019,0.001,0.041,0.001,0.071c-0.001,0.516-0.002,1.033-0.003,1.551
	c-0.002,0.771-0.003,1.546-0.003,2.319C48.693,81.696,48.693,85.79,48.694,89.779z M54.24,92.159l-2.799,1.351v-2.725
	c0-4.32,0.001-8.752-0.003-13.167c-0.001-0.773-0.001-1.548-0.002-2.319c-0.002-0.542-0.002-1.081-0.002-1.62
	c0.965-0.446,1.933-0.918,2.869-1.373c0.268-0.132,0.535-0.262,0.802-0.392c0.021-0.011,0.046-0.021,0.069-0.029
	c0.189-0.079,0.506-0.213,0.667-0.56c0.092-0.2,0.181-0.418,0.22-0.642c0.04-0.228,0.031-0.461-0.073-0.688
	c-0.066-0.146-0.16-0.262-0.271-0.358c0.243,0.116,0.486,0.233,0.729,0.351c-0.001,0.171-0.002,0.344-0.002,0.515
	c-0.004,0.914-0.006,1.833-0.006,2.742c0,0.577,0,1.148,0,1.715v1.683c0,0.084,0,0.167,0.002,0.251
	c0.006,0.355,0.079,0.64,0.194,0.863c0.017,0.035,0.037,0.068,0.059,0.102c0.083,0.132,0.184,0.239,0.294,0.324
	c0.029,0.023,0.062,0.045,0.094,0.066c0.212,0.131,0.449,0.187,0.672,0.187c0.253,0,0.526-0.067,0.813-0.201
	c0.655-0.312,1.318-0.631,1.959-0.94l0.614-0.297c0.179-0.086,0.355-0.177,0.534-0.266c0.373-0.188,0.724-0.364,1.084-0.511
	c0.781-0.316,1.155-0.904,1.146-1.801c-0.007-0.786-0.01-1.581-0.01-2.371c-0.001-0.485-0.001-0.972-0.001-1.449
	c0-0.342,0.001-0.688,0.001-1.035c0-0.628-0.002-1.264-0.005-1.893c1.187-0.561,2.386-1.142,3.546-1.703
	c0.257-0.124,0.516-0.249,0.772-0.374v5.61c0,4.695,0,9.488,0.01,14.216C63.554,87.661,58.819,89.947,54.24,92.159z"/>
</svg>
