<?xml version="1.0" encoding="utf-8"?>
<!-- Generator: Adobe Illustrator 16.0.0, SVG Export Plug-In . SVG Version: 6.00 Build 0)  -->
<!DOCTYPE svg PUBLIC "-//W3C//DTD SVG 1.1//EN" "http://www.w3.org/Graphics/SVG/1.1/DTD/svg11.dtd">
<svg version="1.1" id="Camada_1" xmlns="http://www.w3.org/2000/svg" xmlns:xlink="http://www.w3.org/1999/xlink" x="0px" y="0px"
	 width="100px" height="100px" viewBox="0 0 100 100" enable-background="new 0 0 100 100" xml:space="preserve">
<path fill-rule="evenodd" clip-rule="evenodd" fill="#0292C4" d="M48.594,48.292c-0.016-0.153-0.03-0.309-0.046-0.462
	c-0.013,0.013-0.026,0.025-0.039,0.039c0.003,0.111,0.008,0.225,0.012,0.337C48.545,48.234,48.57,48.263,48.594,48.292z"/>
<path fill-rule="evenodd" clip-rule="evenodd" fill="#0292C4" d="M96.946,41.854c-1.028-0.968-2.013-1.981-3.015-2.975
	c-1.161-1.15-1.437-1.176-2.788-0.265c-3.086,2.082-7.27,1.108-9.029-2.166c-1.268-2.358-1.044-4.666,0.506-6.848
	c0.575-0.81,0.613-1.384,0.012-1.999c-1.438-1.47-2.868-2.951-4.38-4.341c-1.331-1.225-3.192-1.238-4.644-0.162
	c-0.396,0.294-0.775,0.617-1.126,0.964c-1.507,1.493-3.011,2.988-4.515,4.484c-0.044,2.099-0.489,4.189-1.188,6.195
	c0.424,0.051,0.786-0.066,1.114-0.453c0.488-0.576,0.354-1.192-0.006-1.793c1.335-1.349,2.653-2.688,3.979-4.018
	c0.997-1.001,1.996-2,3.009-2.984c0.57-0.555,1.202-0.625,1.72-0.129c1.159,1.113,2.276,2.269,3.444,3.441
	c-1.178,1.97-1.723,4.058-1.245,6.331c0.388,1.842,1.247,3.433,2.613,4.738c2.978,2.846,6.458,3.217,10.82,1.156
	c1.159,1.143,2.332,2.278,3.476,3.441c0.367,0.373,0.449,0.846,0.042,1.262c-2.404,2.462-4.817,4.916-7.233,7.379
	c-0.753-0.445-1.388-0.548-1.954,0.019c-0.563,0.563-0.474,1.199-0.064,1.942c-0.588,0.551-1.198,1.094-1.774,1.668
	c-9.728,9.722-19.451,19.447-29.175,29.172c-1.01,1.009-1.454,1.006-2.473-0.009c-0.996-0.993-1.994-1.986-2.973-2.962
	c0.51-1.047,0.881-2.046,1.115-3.001c-0.074-0.005-0.148-0.006-0.221-0.012c-0.081,0.029-0.172,0.04-0.271,0.032
	c-0.164,0.025-0.327-0.008-0.46-0.124c-0.51-0.086-1.008-0.216-1.503-0.365c-0.206,0.902-0.613,1.778-1.228,2.57
	c-0.698,0.899-0.666,1.437,0.157,2.266c1.168,1.178,2.345,2.349,3.519,3.521c2.061,2.059,4.137,2.056,6.201-0.007
	c1.822-1.821,3.643-3.644,5.464-5.465c1.839-1.839,3.678-3.678,5.517-5.516c1.821-1.822,3.644-3.644,5.464-5.465
	c1.84-1.839,3.678-3.678,5.517-5.518c1.821-1.82,3.688-3.601,5.453-5.475c1.768-1.876,3.736-3.542,5.482-5.446
	c2.124-2.315,4.462-4.434,6.649-6.693c0.669-0.692,1.147-1.569,1.714-2.361v-1.486C98.362,43.367,97.717,42.579,96.946,41.854z"/>
<path fill-rule="evenodd" clip-rule="evenodd" fill="#0292C4" d="M79.405,44.653c0.098,0.787-0.511,1.152-0.986,1.251
	c-0.441,0.093-1.047-0.167-1.453-0.452c-0.557-0.392-1-0.947-1.48-1.443c-0.52-0.537-0.646-1.531-0.263-1.936
	c0.565-0.595,1.378-0.684,2.038-0.118c0.653,0.561,1.252,1.191,1.822,1.837C79.272,44.007,79.303,44.362,79.405,44.653z"/>
<path fill-rule="evenodd" clip-rule="evenodd" fill="#0292C4" d="M69.305,37.162c-0.111-0.722,0.453-1.051,0.893-1.124
	c0.467-0.077,1.07,0.104,1.475,0.378c0.584,0.396,1.048,0.97,1.551,1.48c0.494,0.503,0.618,1.471,0.259,1.882
	c-0.521,0.595-1.446,0.687-2.083,0.115c-0.66-0.592-1.269-1.248-1.85-1.919C69.38,37.779,69.381,37.437,69.305,37.162z"/>
<path fill-rule="evenodd" clip-rule="evenodd" fill="#0292C4" d="M85.051,50.336c0.137,0.754-0.446,1.097-0.914,1.18
	c-0.455,0.08-1.058-0.126-1.457-0.405c-0.579-0.404-1.039-0.981-1.539-1.495c-0.49-0.507-0.627-1.482-0.276-1.876
	c0.501-0.563,1.346-0.687,1.984-0.149c0.716,0.602,1.351,1.303,1.979,1.999C84.985,49.763,84.981,50.082,85.051,50.336z"/>
<path fill-rule="evenodd" clip-rule="evenodd" fill="#0292C4" d="M70.146,22.327c-0.278-0.409-0.558-0.82-0.835-1.229
	c-0.832-0.682-1.809-0.972-2.854-1.139c-1.394-0.223-2.777-0.509-4.165-0.768c-1.606-0.299-1.85-0.167-2.454,1.346
	c-1.385,3.456-5.393,5-8.688,3.281c-2.374-1.238-3.485-3.274-3.428-5.949c0.021-0.993-0.27-1.49-1.114-1.661
	c-2.014-0.409-4.029-0.831-6.062-1.132c-1.79-0.265-3.337,0.77-3.934,2.476c-0.162,0.465-0.293,0.946-0.389,1.429
	c-0.521,2.654-1.036,5.31-1.55,7.964c0.673,1.433,1.304,2.886,1.905,4.349c0.926-0.16,1.503-0.441,1.592-1.274
	c0.081-0.751-0.376-1.187-1.012-1.48c0.347-1.866,0.685-3.713,1.034-5.559c0.263-1.388,0.528-2.775,0.813-4.159
	c0.161-0.779,0.643-1.193,1.351-1.073c1.584,0.269,3.158,0.599,4.783,0.913c0.131,2.29,0.854,4.324,2.526,5.936
	c1.355,1.307,2.96,2.14,4.823,2.453c4.062,0.682,7.15-0.965,9.602-5.122c1.601,0.295,3.208,0.575,4.809,0.895
	c0.514,0.103,0.846,0.446,0.744,1.02c-0.606,3.388-1.225,6.774-1.84,10.168c-0.873,0.054-1.456,0.327-1.606,1.113
	c-0.149,0.782,0.282,1.258,1.038,1.643c-0.177,0.786-0.378,1.578-0.531,2.378c-2.587,13.507-5.168,27.014-7.75,40.522
	c-0.269,1.4-0.638,1.647-2.049,1.381c-1.384-0.262-2.768-0.523-4.124-0.78c-0.668-4.645-2.768-7.401-6.353-8.391
	c0.527,1.249,1.038,2.504,1.503,3.773c1.502,1.256,2.355,3.185,2.22,5.315c-0.073,1.137,0.256,1.563,1.402,1.786
	c1.629,0.318,3.259,0.626,4.89,0.937c2.86,0.546,4.576-0.623,5.126-3.489c0.485-2.53,0.967-5.06,1.45-7.59
	c0.489-2.554,0.978-5.109,1.466-7.663c0.483-2.531,0.968-5.06,1.451-7.591c0.489-2.554,0.976-5.107,1.465-7.662
	c0.483-2.53,1.027-5.051,1.435-7.593c0.408-2.546,1.103-5.029,1.478-7.586c0.456-3.108,1.2-6.174,1.74-9.272
	C70.22,24.295,70.123,23.3,70.146,22.327z"/>
<path fill-rule="evenodd" clip-rule="evenodd" fill="#0292C4" d="M52.924,31.36c0.524,0.596,0.226,1.24-0.112,1.589
	c-0.314,0.325-0.961,0.45-1.457,0.443c-0.68-0.011-1.359-0.222-2.036-0.363c-0.732-0.153-1.396-0.904-1.305-1.454
	c0.134-0.81,0.756-1.34,1.621-1.244c0.854,0.097,1.704,0.284,2.539,0.497C52.451,30.899,52.675,31.177,52.924,31.36z"/>
<path fill-rule="evenodd" clip-rule="evenodd" fill="#0292C4" d="M40.359,30.836c-0.498-0.535-0.215-1.125,0.108-1.432
	c0.342-0.325,0.943-0.516,1.432-0.516c0.705,0,1.412,0.213,2.114,0.354c0.692,0.139,1.338,0.87,1.271,1.411
	c-0.096,0.786-0.81,1.381-1.658,1.266c-0.879-0.119-1.75-0.32-2.608-0.549C40.769,31.304,40.577,31.02,40.359,30.836z"/>
<path fill-rule="evenodd" clip-rule="evenodd" fill="#0292C4" d="M60.787,32.889c0.536,0.548,0.247,1.159-0.094,1.49
	c-0.332,0.322-0.946,0.49-1.434,0.483c-0.706-0.009-1.41-0.229-2.112-0.374c-0.69-0.142-1.352-0.873-1.283-1.396
	c0.098-0.747,0.728-1.323,1.559-1.238c0.929,0.095,1.849,0.319,2.76,0.542C60.41,32.453,60.587,32.719,60.787,32.889z"/>
<path fill-rule="evenodd" clip-rule="evenodd" fill="#0292C4" d="M55.858,70.108c-1.048-2.354-2.097-4.705-3.145-7.059
	c-1.06-2.376-2.117-4.751-3.176-7.126c-0.501-1.125-1.002-2.249-1.503-3.373c-0.828-1.255-1.478-2.609-1.817-4.08
	c-1-2.244-2.001-4.488-3-6.732c-1.048-2.353-2.042-4.732-3.159-7.052c-1.12-2.322-1.969-4.757-3.121-7.07
	c-1.402-2.813-2.542-5.753-3.869-8.604c-0.407-0.873-1.054-1.633-1.59-2.446c-0.463-0.177-0.926-0.355-1.389-0.533
	c-1.071-0.084-2.038,0.236-2.992,0.695c-1.271,0.613-2.57,1.169-3.857,1.75c-1.489,0.671-1.612,0.92-1.246,2.507
	c0.838,3.627-1.569,7.185-5.256,7.656c-2.656,0.339-4.73-0.697-6.212-2.925c-0.55-0.827-1.073-1.068-1.863-0.727
	c-1.888,0.815-3.782,1.62-5.622,2.534c-1.62,0.804-2.3,2.538-1.814,4.279c0.133,0.474,0.299,0.944,0.498,1.395
	c1.594,3.626,3.203,7.246,4.802,10.871c5.839,13.236,11.667,26.477,17.533,39.7c0.411,0.926,1.109,1.726,1.673,2.584
	c0.601,0.23,1.203,0.462,1.805,0.692c0.967-0.26,1.96-0.45,2.895-0.8c1.157-0.433,2.265-0.997,3.394-1.509
	c1.997-0.902,1.996-0.902,1.594-3.044c-0.587-3.132,0.994-6.061,3.853-7.137c2.894-1.09,6.024,0.017,7.651,2.704
	c0.589,0.974,1.102,1.135,2.171,0.665c1.518-0.67,3.032-1.35,4.547-2.025C56.303,74.714,57.045,72.775,55.858,70.108z
	 M52.515,73.468c-1.285,0.577-2.569,1.151-3.83,1.717c-3.473-3.722-7.06-4.659-10.904-2.896c-3.809,1.748-5.466,5.071-4.922,9.897
	c-1.481,0.67-2.957,1.369-4.46,2.004c-0.671,0.283-1.207-0.044-1.563-0.847c-1.529-3.442-3.024-6.899-4.58-10.328
	c-4.496-9.906-9.015-19.801-13.497-29.638c0.862-0.787,1.328-1.397,0.87-2.231c-0.363-0.663-0.986-0.759-1.676-0.638
	c-0.781-1.729-1.559-3.439-2.327-5.154c-0.577-1.289-1.152-2.579-1.708-3.877c-0.314-0.732-0.154-1.347,0.495-1.652
	c1.455-0.684,2.935-1.313,4.447-1.983c1.417,1.805,3.171,3.062,5.465,3.429c1.859,0.298,3.652,0.065,5.359-0.742
	c3.724-1.761,5.317-4.878,4.955-9.689c1.482-0.672,2.962-1.361,4.458-2.013c0.48-0.209,0.949-0.116,1.193,0.412
	c1.438,3.127,2.864,6.259,4.298,9.397c-0.685,0.543-1.008,1.1-0.683,1.83c0.324,0.728,0.95,0.872,1.791,0.756
	c0.304,0.746,0.592,1.51,0.923,2.255c5.592,12.564,11.191,25.125,16.787,37.686C53.987,72.468,53.827,72.882,52.515,73.468z"/>
<path fill-rule="evenodd" clip-rule="evenodd" fill="#0292C4" d="M23.43,34.086c0.77,0.191,0.893,0.891,0.815,1.37
	c-0.072,0.445-0.531,0.917-0.943,1.195c-0.564,0.38-1.242,0.595-1.878,0.865c-0.688,0.293-1.662,0.056-1.901-0.448
	c-0.352-0.741-0.145-1.532,0.62-1.946c0.757-0.409,1.561-0.741,2.368-1.042C22.778,33.979,23.121,34.078,23.43,34.086z"/>
<path fill-rule="evenodd" clip-rule="evenodd" fill="#0292C4" d="M12.818,40.835c-0.714-0.155-0.819-0.8-0.729-1.237
	c0.095-0.462,0.48-0.962,0.88-1.241c0.579-0.403,1.281-0.631,1.938-0.917c0.647-0.281,1.595-0.051,1.85,0.432
	c0.369,0.7,0.124,1.597-0.638,1.986c-0.789,0.405-1.62,0.737-2.455,1.04C13.421,40.985,13.102,40.861,12.818,40.835z"/>
<path fill-rule="evenodd" clip-rule="evenodd" fill="#0292C4" d="M30.756,30.85c0.753,0.143,0.865,0.81,0.775,1.276
	c-0.088,0.454-0.497,0.943-0.901,1.216c-0.584,0.396-1.288,0.618-1.947,0.9c-0.648,0.277-1.608,0.055-1.851-0.413
	c-0.347-0.669-0.159-1.502,0.571-1.905c0.817-0.453,1.7-0.795,2.575-1.132C30.199,30.707,30.496,30.825,30.756,30.85z"/>
</svg>
